<svg width="25" height="28" viewBox="0 0 25 28" fill="none" xmlns="http://www.w3.org/2000/svg">
<path d="M1.525 3.2C1.99167 3.2 2.225 3.76667 2.225 4.9L2.525 9.2H2.625L3.875 8.725C5.275 8.725 6.125 10.1583 6.425 13.025C6.54167 13.8417 6.6 15.0417 6.6 16.625V18.65C6.6 19.2833 6.36667 19.6 5.9 19.6H5.8C5.35 19.5333 5.125 19.2917 5.125 18.875V16.525C5.125 12.7583 4.75833 10.675 4.025 10.275H3.875C3.375 10.275 3.00833 11.0417 2.775 12.575V13.975C2.775 16.475 2.56667 17.725 2.15 17.725L1.675 17.775C1.20833 17.775 0.975 17.0833 0.975 15.7C1.025 14.2333 1.125 13.0333 1.275 12.1L0.75 3.875C0.75 3.44167 1.00833 3.21667 1.525 3.2ZM10.0248 8.025C10.6915 8.04167 11.8165 9.20833 13.3998 11.525L13.4498 11.95C13.4498 12.4167 12.3081 12.775 10.0248 13.025L9.9498 13.1V13.2C10.2998 14.7 10.6665 15.45 11.0498 15.45H11.3498C11.8831 15.45 12.6915 14.875 13.7748 13.725H13.9248C14.2581 13.725 14.5165 13.9667 14.6998 14.45C14.6998 14.85 13.9998 15.5417 12.5998 16.525C12.2331 16.7417 11.7915 16.9 11.2748 17C9.9248 17 8.98314 15.7333 8.4498 13.2C7.68314 13.0833 7.2998 12.7667 7.2998 12.25C7.2998 11.8833 7.58314 11.6417 8.1498 11.525V11.625L8.3998 11.525V10.9C8.3998 8.98333 8.94147 8.025 10.0248 8.025ZM10.1748 9.825H9.9498L9.8498 10.75V11.525H9.9498C10.8831 11.4917 11.3498 11.3917 11.3498 11.225C10.9165 10.575 10.5248 10.1083 10.1748 9.825ZM16.4605 9.5C17.0439 9.5 17.4439 10.7833 17.6605 13.35C17.9439 14.5333 18.1522 15.125 18.2855 15.125H18.4355C18.8522 14.075 19.0605 13.0333 19.0605 12L18.9105 10.275C19.0939 9.825 19.3522 9.6 19.6855 9.6C20.3022 9.6 20.6105 10.6917 20.6105 12.875C20.9772 15.1417 21.1605 17.25 21.1605 19.2V20.375C21.1605 23.9583 20.1439 26.375 18.1105 27.625L17.5605 27.725C16.6105 27.725 15.7272 26.8417 14.9105 25.075L14.6855 23.575V23.5C14.6855 22.4 14.9939 21.85 15.6105 21.85L16.2355 22.25L16.1605 23.825C16.1605 24.5917 16.5522 25.3667 17.3355 26.15H17.6605C18.5772 26.15 19.2522 24.4 19.6855 20.9L19.7355 19.45C19.7189 17.7667 19.6522 16.6917 19.5355 16.225C18.8689 16.8083 18.3439 17.1 17.9605 17.1C17.1105 17.1 16.3522 14.825 15.6855 10.275L15.6105 10.225C15.6105 9.84167 15.8939 9.6 16.4605 9.5ZM22.9268 0.0249995C23.3768 0.208332 23.6018 0.474999 23.6018 0.825C23.7351 5.55833 23.9268 8.975 24.1768 11.075C24.0101 11.4917 23.7684 11.7 23.4518 11.7C22.8351 11.7 22.5268 10.7083 22.5268 8.725C22.3768 7.99167 22.2518 5.33333 22.1518 0.749999C22.1518 0.333333 22.4101 0.0916663 22.9268 0.0249995ZM23.0768 17.225C23.2268 16.7083 23.4934 16.45 23.8768 16.45C24.2768 16.45 24.5518 16.7083 24.7018 17.225C24.5184 17.7083 24.2601 17.95 23.9268 17.95H23.8518C23.5184 17.95 23.2601 17.7083 23.0768 17.225Z" fill="black"/>
</svg>
